PathFileType	3	(X/Y/Z)	C:\Users\koon_\Desktop\
DataRate	CameraRate	NumFrames	NumMarkers	Units	OrigDataRate	OrigDataStartFrame	OrigNumFrames
100.0	100.0	8	27	mm	100.0	1891	5041	
Frame#	Time	get:LFHD			get:RFHD			get:LBHD			get:RBHD			get:C7			get:T10			get:CLAV			get:STRN			get:RBAK			get:LSHO			get:LUPA			get:LELB			get:LFRA			get:LWRA			get:LWRB			get:LFIN			get:RSHO			get:RUPA			get:RELB			get:RFRA			get:RWRA			get:RWRB			get:RFIN			get:LASI			get:RASI			get:LPSI			get:RPSI			
		X1	Y1	Z1	X2	Y2	Z2	X3	Y3	Z3	X4	Y4	Z4	X5	Y5	Z5	X6	Y6	Z6	X7	Y7	Z7	X8	Y8	Z8	X9	Y9	Z9	X10	Y10	Z10	X11	Y11	Z11	X12	Y12	Z12	X13	Y13	Z13	X14	Y14	Z14	X15	Y15	Z15	X16	Y16	Z16	X17	Y17	Z17	X18	Y18	Z18	X19	Y19	Z19	X20	Y20	Z20	X21	Y21	Z21	X22	Y22	Z22	X23	Y23	Z23	X24	Y24	Z24	X25	Y25	Z25	X26	Y26	Z26	X27	Y27	Z27	
1891	18.9	49.516079	1514.6917	-25.965445	-96.460854	1519.0358	-40.93058	61.131687	1537.4821	-161.18835	-88.181763	1533.972	-173.77954	-36.241566	1322.1259	-240.84673	-13.030781	1121.1178	-259.90796	-16.366053	1250.0148	-46.66885	-8.5156584	1099.1047	4.6650548	-123.92825	1248.8306	-255.15935	88.121094	1352.6985	-194.24677	217.16083	1401.3599	-147.58916	346.61728	1433.9005	-132.73788	280.64066	1405.7947	-182.04942	143.86124	1378.687	-233.89618	140.01576	1450.7643	-235.96109	81.685028	1433.225	-282.36383	-157.61957	1328.7711	-131.73871	-222.03114	1211.066	-102.45248	-273.99847	998.21344	-132.46536	-223.32864	877.9223	-31.483643	-213.07292	782.74774	-2.0361953	-280.96896	790.49927	-32.136471	-257.95996	723.35956	26.246782	127.13285	889.7912	-67.736458	-167.90479	901.78387	-60.612736	30.090202	922.25671	-249.74304	-57.972885	920.36823	-251.94966
1892	18.91	49.327625	1515.1273	-26.236467	-96.761375	1519.1167	-41.206242	60.736912	1537.5952	-161.53745	-88.583229	1533.692	-173.86659	-36.145363	1322.0397	-240.73151	-13.155275	1121.0773	-259.82401	-16.270721	1249.9073	-46.556908	-8.5036421	1099.0311	4.6502519	-123.9371	1248.8732	-255.10779	88.589027	1352.5387	-194.07829	218.37901	1400.3518	-147.08246	348.10999	1431.5236	-131.94286	281.91092	1404.3745	-181.41882	145.13596	1379.0984	-233.87938	141.58707	1451.4963	-235.14026	83.342781	1434.8308	-281.85019	-157.53897	1328.7781	-131.47127	-222.00673	1211.1182	-102.30531	-273.87503	998.22058	-132.35222	-223.30008	877.8623	-31.494402	-213.02582	782.64758	-2.1417367	-280.94009	790.43927	-32.248432	-257.90302	723.25641	26.051224	127.04291	889.77191	-67.737946	-167.9427	901.76501	-60.543667	29.97683	922.27057	-249.88498	-58.075832	920.32867	-251.92282
1893	18.92	49.064438	1515.6266	-26.519171	-96.969444	1519.1968	-41.423756	60.404446	1537.7068	-161.90573	-88.971535	1533.4392	-174.13129	-36.163189	1321.9795	-240.70422	-13.314186	1121.064	-259.81107	-16.177017	1249.8118	-46.463184	-8.4859276	1098.9144	4.7273088	-123.96828	1248.8787	-254.92946	89.020645	1352.5178	-193.98848	219.655	1399.2455	-146.56689	349.78143	1429.0194	-131.20329	283.1936	1402.7806	-180.72574	146.55597	1379.8293	-234.00829	143.38857	1452.2028	-234.45192	85.080475	1436.5609	-281.41656	-157.49756	1328.828	-131.41626	-221.97414	1211.1483	-102.16042	-273.78	998.24792	-132.16093	-223.22577	877.82471	-31.729654	-212.98607	782.56854	-2.2564011	-280.90948	790.40491	-32.42524	-257.83447	723.15796	25.785295	127.01608	889.76257	-67.797928	-167.90092	902.09668	-60.344093	29.870329	922.23926	-249.84338	-58.207272	920.29041	-251.83969
1894	18.93	48.84486	1516.0621	-26.828796	-97.230698	1519.2909	-41.699043	60.071251	1537.785	-162.28975	-89.270737	1533.2269	-174.41791	-36.163231	1321.9449	-240.60553	-13.409455	1121.0642	-259.73792	-16.11861	1249.717	-46.435635	-8.4757547	1098.8235	4.7227521	-124.02518	1248.9005	-254.8526	89.432037	1352.493	-193.83171	220.91516	1398.2684	-146.07396	351.34155	1426.342	-130.42419	284.52789	1401.1171	-179.90259	147.6711	1380.8372	-234.24245	145.41046	1452.796	-233.69644	86.896599	1438.4667	-280.94727	-157.44937	1328.8741	-131.30112	-221.9552	1211.1969	-102.0321	-273.45612	998.15112	-131.43102	-223.16881	877.77673	-31.897821	-212.92978	782.48553	-2.5246897	-280.86279	790.34705	-33.026402	-257.77545	723.02631	25.548248	126.94788	889.74249	-67.793144	-167.93547	902.12677	-60.199013	29.761572	922.23499	-249.85683	-58.309898	920.26172	-251.86777
1895	18.94	48.613087	1516.4675	-27.151588	-97.430496	1519.4215	-41.874664	59.733295	1537.8727	-162.69603	-89.525284	1533.0533	-174.76952	-36.241974	1321.9221	-240.59399	-13.516522	1121.1147	-259.68234	-15.995485	1249.6428	-46.414642	-8.4787989	1098.7432	4.7520108	-124.14378	1248.9611	-254.72829	89.730278	1352.4233	-193.59705	222.38028	1396.9961	-145.46281	353.10666	1423.3693	-129.52698	285.9606	1399.5785	-179.44766	149.20888	1381.8457	-234.44191	147.48538	1453.91	-232.97707	88.796196	1440.5161	-280.35706	-157.42709	1328.874	-131.03787	-221.93935	1211.2118	-101.90858	-273.38605	998.16553	-131.2261	-223.11893	877.74091	-31.990871	-212.92751	782.37927	-2.7502241	-280.88885	790.31512	-33.199913	-257.72815	722.888	25.21701	126.90749	889.74133	-67.776031	-168.15317	901.73071	-60.367062	29.672491	922.22546	-249.79381	-58.417782	920.29901	-251.88374
1896	18.95	48.401386	1516.8379	-27.472811	-97.665955	1519.5752	-42.123009	59.416214	1537.9426	-163.06192	-89.798897	1532.9264	-175.11467	-36.372135	1321.9274	-240.50589	-13.576701	1121.0947	-259.55753	-15.958941	1249.5828	-46.35717	-8.4539938	1098.6918	4.79356	-124.27274	1249.0094	-254.72185	89.98455	1352.4014	-193.50839	225.50299	1392.2566	-153.65164	354.79871	1420.1842	-128.75732	287.5116	1397.7748	-178.7365	150.82394	1383.0243	-234.60735	149.60875	1454.881	-231.93434	90.834297	1442.7692	-279.69427	-157.46457	1328.9056	-130.99377	-221.92145	1211.2107	-101.79358	-273.26328	997.95502	-129.76884	-223.158	877.64807	-32.227451	-212.9353	782.25256	-2.9988716	-280.96811	790.33801	-32.950195	-257.73273	722.7074	24.900301	126.81062	889.76257	-67.764191	-168.09962	902.0929	-60.089939	29.567848	922.22308	-249.77184	-58.485111	920.30493	-251.83427
1897	18.96	48.249809	1517.1738	-27.779526	-97.893539	1519.7556	-42.359844	59.099689	1537.965	-163.46123	-90.166771	1532.7966	-175.18576	-36.513603	1322.0441	-240.56558	-13.619509	1121.1267	-259.57834	-15.910715	1249.5504	-46.283802	-8.4342823	1098.6255	4.8167415	-124.43615	1248.9766	-254.57854	90.232613	1352.364	-193.3495	226.89935	1391.0222	-152.72461	356.62534	1416.6763	-128.0208	289.05215	1395.7781	-177.78633	152.57086	1384.2356	-234.69441	152.13367	1455.9919	-230.75107	92.922775	1445.5402	-278.87985	-157.54543	1328.8894	-130.91373	-221.93437	1211.1523	-101.63122	-273.38885	998.16602	-131.18091	-223.15561	877.52765	-32.436119	-212.99887	782.05865	-3.264919	-281.06604	790.19293	-33.362049	-257.7417	722.51147	24.531971	126.72277	889.73651	-67.768364	-168.18149	902.11987	-59.988953	29.515835	922.32275	-249.87708	-58.567284	920.32477	-251.78969
1898	18.97	48.078773	1517.4845	-28.212717	-98.087341	1519.9473	-42.589821	58.722237	1537.9674	-163.84706	-90.54319	1532.7517	-175.45735	-36.725201	1322.0377	-240.45406	-13.705796	1121.1283	-259.47604	-15.894817	1249.4943	-46.259056	-8.3503323	1098.5472	4.8528414	-124.59229	1248.9349	-254.45935	90.554054	1352.2449	-193.06767	228.29701	1390.9209	-148.41333	358.59207	1413.0323	-127.29445	290.63242	1393.7111	-177.06439	154.50476	1385.4196	-234.63727	154.48524	1457.0317	-229.2854	95.17247	1448.1469	-277.77994	-157.66505	1328.8126	-130.74368	-221.99973	1210.991	-101.58208	-273.35388	997.80145	-129.91602	-223.2204	877.3349	-32.509674	-213.06596	781.79871	-3.4118712	-281.11453	789.99908	-33.49342	-257.77634	722.2569	24.210592	126.6596	889.73859	-67.706642	-168.23663	902.11163	-60.011864	29.472126	922.36127	-249.84195	-58.642014	920.35187	-251.78296
